<svg xmlns="http://www.w3.org/2000/svg" width="128" height="128" viewBox="0 0 128 128">
  <!-- Background circle -->
  <circle cx="64" cy="64" r="60" fill="#4A154B" />
  
  <!-- Slack logo elements -->
  <g transform="translate(32, 32) scale(2.66)">
    <path d="M6.194 14.644c0 1.16-.943 2.107-2.103 2.107-1.16 0-2.103-.946-2.103-2.107 0-1.16.943-2.106 2.103-2.106h2.103v2.106zm1.061 0c0-1.16.943-2.106 2.103-2.106 1.16 0 2.103.946 2.103 2.106v5.274c0 1.16-.943 2.107-2.103 2.107-1.16 0-2.103-.946-2.103-2.107v-5.274z" fill="#E01E5A"/>
    <path d="M9.358 6.161c-1.16 0-2.103-.946-2.103-2.106 0-1.16.943-2.107 2.103-2.107 1.16 0 2.103.946 2.103 2.107v2.106H9.358zm0 1.06c1.16 0 2.103.946 2.103 2.107 0 1.16-.943 2.107-2.103 2.107H4.09c-1.16 0-2.103-.946-2.103-2.107 0-1.16.943-2.106 2.103-2.106h5.27z" fill="#36C5F0"/>
    <path d="M17.81 9.328c0-1.16.943-2.106 2.103-2.106 1.16 0 2.103.946 2.103 2.106 0 1.16-.943 2.107-2.103 2.107h-2.103V9.328zm-1.062 0c0 1.16-.943 2.107-2.103 2.107-1.16 0-2.103-.946-2.103-2.107V4.054c0-1.16.943-2.107 2.103-2.107 1.16 0 2.103.946 2.103 2.107v5.274z" fill="#2EB67D"/>
    <path d="M14.645 17.812c1.16 0 2.103.946 2.103 2.106 0 1.16-.943 2.107-2.103 2.107-1.16 0-2.103-.946-2.103-2.107v-2.106h2.103zm0-1.061c-1.16 0-2.103-.946-2.103-2.107 0-1.16.943-2.106 2.103-2.106h5.27c1.16 0 2.103.946 2.103 2.106 0 1.16-.943 2.107-2.103 2.107h-5.27z" fill="#ECB22E"/>
  </g>
</svg>